<svg version="1.1" id="Layer_1" xmlns="http://www.w3.org/2000/svg" xmlns:xlink="http://www.w3.org/1999/xlink" x="0px" y="0px"
	 width="100%" viewBox="0 0 512 512" enable-background="new 0 0 512 512" xml:space="preserve">
<path fill="#FFFFFF" opacity="1.000000" stroke="none" 
	d="
M512.562500,129.007355 
	C513.000000,255.459106 512.984619,381.918213 513.079590,508.377258 
	C513.082214,511.897552 512.649902,513.114380 508.625488,513.111267 
	C340.846497,512.981445 173.067398,512.987183 5.288380,513.088013 
	C1.791308,513.090088 0.891741,512.505432 0.894772,508.790985 
	C1.017976,357.839813 1.000000,206.888565 1.000000,55.468658 
	C2.797990,54.714615 3.762119,56.040390 4.700652,57.123512 
	C8.388927,61.380005 13.055958,62.656876 18.552807,62.610691 
	C36.709358,62.458141 54.868088,62.529171 73.025902,62.564339 
	C80.820625,62.579437 81.759544,63.340462 83.690216,70.820244 
	C102.132408,142.268707 120.856682,213.643921 139.331070,285.084106 
	C144.501877,305.079590 149.598236,325.096741 155.017822,345.028290 
	C157.988098,355.952026 161.320465,358.549042 172.661667,358.549683 
	C260.952240,358.554718 349.242798,358.555664 437.533356,358.548676 
	C448.486053,358.547821 451.712921,356.247559 454.555359,345.645691 
	C463.182434,313.468475 471.341827,281.168243 479.797974,248.945984 
	C489.860748,210.601501 499.672455,172.191681 509.800110,133.864258 
	C510.262756,132.113464 510.541931,130.242691 512.562500,129.007355 
z"/>
<path fill="#000000" opacity="1.000000" stroke="none" 
	d="
M513.000000,128.541931 
	C508.792999,141.065277 506.267731,153.586441 503.008026,165.908096 
	C496.107208,191.993027 489.190826,218.074051 482.388977,244.184845 
	C476.515137,266.733307 470.837097,289.332764 464.982361,311.886261 
	C461.756439,324.313019 458.250305,336.667267 455.054993,349.101593 
	C453.359222,355.700592 448.098694,360.133575 440.013977,360.116913 
	C350.027130,359.931427 260.039581,359.928497 170.052734,360.117615 
	C161.641190,360.135284 156.214569,355.677155 153.969269,347.066101 
	C144.445847,310.542816 134.728378,274.070038 125.240105,237.537689 
	C119.018623,213.583344 113.171387,189.531876 106.968887,165.572495 
	C99.924461,138.360855 92.656609,111.207092 85.521423,84.018845 
	C84.256119,79.197472 83.085892,74.347755 82.017998,69.479057 
	C81.203270,65.764572 79.861809,63.776810 75.254356,63.856087 
	C55.596298,64.194321 35.927948,63.879810 16.265808,64.064842 
	C9.334205,64.130074 4.978092,60.699059 1.340699,55.085857 
	C1.000000,51.307091 1.000000,47.614182 1.000000,43.460636 
	C3.316289,35.924007 8.345400,32.536179 15.642238,32.503323 
	C41.120659,32.388607 66.599907,32.351105 92.077721,32.524979 
	C100.128235,32.579914 105.815445,36.846813 108.342712,44.877800 
	C112.842278,59.176205 116.189140,73.798309 119.922607,88.309990 
	C121.084549,92.826378 122.341454,97.315346 123.547791,101.818344 
	C124.411980,105.044197 126.245354,106.600494 129.616379,106.442497 
	C131.441956,106.356926 133.278778,106.444878 135.110519,106.444893 
	C254.178299,106.445839 373.246094,106.444923 492.313873,106.450165 
	C495.143066,106.450287 497.984863,106.288071 500.796448,106.687775 
	C506.981903,107.567108 511.276062,111.430580 512.773438,117.584503 
	C513.000000,121.361290 513.000000,124.722572 513.000000,128.541931 
z"/>
<path fill="#FFFFFF" opacity="1.000000" stroke="none" 
	d="
M513.000000,117.531342 
	C509.414581,111.432701 504.477753,107.874580 496.399261,107.885460 
	C373.934418,108.050392 251.469254,107.958511 129.004517,108.153381 
	C124.162567,108.161079 123.004021,106.502487 121.891441,102.366203 
	C116.599030,82.690277 112.578079,62.668938 106.031342,43.333332 
	C104.194633,37.908676 98.811195,34.012444 93.139748,34.008263 
	C67.480423,33.989357 41.819798,34.140511 16.162560,33.908165 
	C9.128339,33.844456 4.946830,37.326195 1.340258,42.914566 
	C1.000000,29.841917 1.057724,16.683321 0.940639,3.526281 
	C0.922092,1.442073 1.275331,0.555417 3.475701,0.975304 
	C4.279231,1.128638 5.136568,1.000000 5.969358,1.000000 
	C173.360153,1.000000 340.750946,1.015129 508.141693,0.904649 
	C511.961884,0.902128 513.158386,1.341097 513.131897,5.636370 
	C512.902832,42.777332 513.000000,79.920311 513.000000,117.531342 
z"/>
<path fill="#000000" opacity="1.000000" stroke="none" 
	d="
M354.697845,397.770782 
	C365.802856,381.420227 380.216278,372.207672 400.277405,371.823273 
	C415.348114,371.534515 428.114716,376.414581 438.688416,386.436340 
	C448.009460,395.270844 453.651428,406.229370 455.190338,419.511566 
	C456.804901,433.446533 453.665924,445.986847 445.841766,457.006165 
	C435.588074,471.447296 421.444794,479.533508 403.182190,480.101440 
	C387.849854,480.578278 374.751190,475.632538 363.854980,465.245087 
	C345.835175,448.066620 341.938904,422.640320 353.064728,400.614685 
	C353.502380,399.748291 353.980103,398.902130 354.697845,397.770782 
z"/>
<path fill="#000000" opacity="1.000000" stroke="none" 
	d="
M154.000900,421.330933 
	C155.801971,412.058014 157.563522,403.159698 163.063644,395.765747 
	C174.232300,380.751343 188.585800,371.969971 208.014023,371.853394 
	C223.600723,371.759918 236.517395,377.155487 247.338074,387.904846 
	C258.802704,399.293915 263.880310,413.522705 262.861969,429.386597 
	C261.304901,453.642181 244.298294,473.882965 220.366714,478.912384 
	C201.501160,482.877197 184.482834,478.395233 170.532639,464.889313 
	C158.478058,453.218658 153.245773,438.562805 154.000900,421.330933 
z"/>
<path fill="#FFFFFF" opacity="1.000000" stroke="none" 
	d="
M410.000000,182.000000 
	C399.846161,181.999985 390.190582,181.899445 380.539520,182.063370 
	C377.770477,182.110397 376.894073,181.413757 376.931152,178.533737 
	C377.091888,166.052368 377.051483,153.567383 376.953461,141.084717 
	C376.935547,138.804916 377.400665,137.936905 379.920990,137.943726 
	C411.711853,138.029770 443.503143,138.034119 475.293976,137.940643 
	C478.048340,137.932556 478.435364,139.181656 477.908844,141.218735 
	C474.616394,153.956619 471.267120,166.679901 467.896790,179.397446 
	C467.212128,181.980911 465.232330,182.059525 462.930084,182.047989 
	C445.453766,181.960297 427.976776,182.000000 410.000000,182.000000 
z"/>
<path fill="#FFFFFF" opacity="1.000000" stroke="none" 
	d="
M147.278793,182.000000 
	C143.674240,182.354004 142.592545,181.349258 141.770935,177.842804 
	C138.656265,164.550171 134.765137,151.439438 131.093277,138.000305 
	C164.006546,138.000305 196.645996,138.022415 229.285233,137.952148 
	C231.535049,137.947296 232.057800,138.669281 232.043274,140.795929 
	C231.955719,153.623123 231.885117,166.452850 232.068130,179.278030 
	C232.124496,183.227310 229.523209,181.956772 227.711243,181.960663 
	C201.056229,182.017807 174.401031,182.000000 147.278793,182.000000 
z"/>
<path fill="#FFFFFF" opacity="1.000000" stroke="none" 
	d="
M347.000000,220.052277 
	C347.000000,231.042664 346.925903,241.542160 347.050690,252.039291 
	C347.082977,254.756149 346.890106,256.116302 343.447968,256.093262 
	C317.785828,255.921494 292.121796,255.951355 266.459045,256.067261 
	C263.562622,256.080383 262.905304,255.201172 262.937866,252.446396 
	C263.081665,240.283035 263.135223,228.114532 262.912384,215.953552 
	C262.850586,212.581238 263.901764,211.912933 267.059875,211.929169 
	C291.889252,212.056870 316.721100,212.139328 341.548370,211.875870 
	C346.200897,211.826508 347.769196,213.156418 347.015411,217.563385 
	C346.904633,218.211029 347.000000,218.893921 347.000000,220.052277 
z"/>
<path fill="#FFFFFF" opacity="1.000000" stroke="none" 
	d="
M346.597046,329.605957 
	C319.753815,329.962524 293.255463,329.924408 266.758240,330.076660 
	C263.670349,330.094391 262.869537,329.344879 262.919617,326.244415 
	C263.116119,314.081635 263.117798,301.911865 262.918640,289.749176 
	C262.867676,286.635559 263.689972,285.907623 266.764618,285.923828 
	C292.262451,286.058258 317.761627,286.061707 343.259399,285.920502 
	C346.382843,285.903168 347.123444,286.708862 347.076996,289.773041 
	C346.877411,302.935730 346.961548,316.102722 346.597046,329.605957 
z"/>
<path fill="#FFFFFF" opacity="1.000000" stroke="none" 
	d="
M263.000000,163.999054 
	C263.000061,156.000824 263.094543,148.500397 262.945618,141.004822 
	C262.897797,138.596237 263.610687,137.941162 266.007812,137.948746 
	C292.002502,138.031097 317.997589,138.031113 343.992279,137.948746 
	C346.389557,137.941147 347.075195,138.599396 347.053467,141.004333 
	C346.938873,153.667496 346.938843,166.332779 347.053467,178.995941 
	C347.075226,181.401245 346.388916,182.058823 343.992035,182.051239 
	C317.997345,181.968903 292.002228,181.968872 266.007538,182.051254 
	C263.610016,182.058853 262.857056,181.406693 262.946899,178.994003 
	C263.126587,174.168289 263.000092,169.331161 263.000000,163.999054 
z"/>
<path fill="#FFFFFF" opacity="1.000000" stroke="none" 
	d="
M395.000916,256.000000 
	C389.675629,255.999924 384.845764,255.879089 380.026306,256.051239 
	C377.653717,256.136017 376.922394,255.452927 376.945129,253.020309 
	C377.063446,240.375076 377.051147,227.727737 376.953369,215.082153 
	C376.935760,212.800476 377.404816,211.934052 379.922089,211.943298 
	C405.380859,212.036682 430.840057,212.008774 456.299133,211.983414 
	C458.236511,211.981476 459.459351,212.063492 458.750854,214.686249 
	C455.404236,227.074997 452.183594,239.498306 449.002411,251.930878 
	C448.229858,254.950058 446.957947,256.188568 443.421356,256.125122 
	C427.452179,255.838654 411.474945,256.000000 395.000916,256.000000 
z"/>
<path fill="#FFFFFF" opacity="1.000000" stroke="none" 
	d="
M232.000000,249.911743 
	C232.726425,254.701035 231.353241,256.208771 226.600601,256.132324 
	C206.967484,255.816605 187.325607,255.909943 167.688766,256.072693 
	C163.545258,256.107025 161.659378,255.399994 160.641052,250.617645 
	C158.141708,238.879852 154.546692,227.373337 151.319977,215.793976 
	C150.594360,213.190002 150.737762,211.919067 154.077621,211.935089 
	C179.040848,212.054733 204.005264,212.062485 228.968246,211.919479 
	C232.006592,211.902069 232.039322,213.254227 232.027588,215.472641 
	C231.967712,226.789246 231.999969,238.106323 232.000000,249.911743 
z"/>
<path fill="#FFFFFF" opacity="1.000000" stroke="none" 
	d="
M431.020264,320.127899 
	C430.333038,323.195923 429.458527,325.809082 429.063934,328.492737 
	C428.787903,330.370056 427.635345,329.985016 426.574554,329.986298 
	C410.927399,330.005127 395.279938,329.951111 379.633392,330.051605 
	C377.284149,330.066681 376.952881,329.137207 376.964050,327.126587 
	C377.035187,314.309601 377.022034,301.491974 376.974731,288.674774 
	C376.968323,286.937286 377.153839,285.950104 379.332336,285.958099 
	C399.458923,286.031738 419.585907,286.001556 440.155182,286.001556 
	C437.048462,297.485443 434.043182,308.594299 431.020264,320.127899 
z"/>
<path fill="#FFFFFF" opacity="1.000000" stroke="none" 
	d="
M232.000000,313.997467 
	C231.690277,319.580292 234.169174,326.387177 230.989182,329.255310 
	C228.211548,331.760559 221.514771,329.972778 216.549194,329.989197 
	C205.903061,330.024414 195.253998,329.868713 184.612396,330.090881 
	C181.901672,330.147522 180.975800,329.114777 180.380661,326.835175 
	C177.061050,314.119873 173.737625,301.404846 170.267776,288.730133 
	C169.565536,286.164978 170.639114,285.976288 172.651382,285.979950 
	C191.448593,286.014313 210.246140,286.045929 229.042862,285.944794 
	C231.505554,285.931549 232.088058,286.710663 232.050522,289.045929 
	C231.919510,297.194855 231.999924,305.347198 232.000000,313.997467 
z"/>
<path fill="#FFFFFF" opacity="1.000000" stroke="none" 
	d="
M381.664856,439.162781 
	C376.570648,429.530334 376.034729,420.378143 382.812164,411.607971 
	C390.941467,401.088531 404.525574,398.440369 415.538666,407.187683 
	C424.267853,414.121002 426.764496,422.300873 424.193054,431.254852 
	C420.207520,445.132874 412.338623,448.700409 402.092194,449.703461 
	C394.016632,450.493958 386.979187,446.172272 381.664856,439.162781 
z"/>
<path fill="#FFFFFF" opacity="1.000000" stroke="none" 
	d="
M231.435532,419.925293 
	C233.525955,433.730865 229.200058,441.343506 218.224075,447.307892 
	C202.835510,455.670044 184.887100,440.996674 184.719910,426.766754 
	C184.557037,412.906097 197.169815,401.402496 209.523682,401.994324 
	C218.680161,402.432983 229.552811,410.465057 231.435532,419.925293 
z"/>
</svg>